<svg width="24" height="36" viewBox="0 0 24 36" fill="none" xmlns="http://www.w3.org/2000/svg">
<path d="M9.432 31V29.32C8.6 30.04 7.856 30.544 7.2 30.832C6.544 31.104 5.888 31.24 5.232 31.24C4.176 31.24 3.368 30.896 2.808 30.208C2.248 29.504 1.968 28.52 1.968 27.256V19.12H3.936V26.968C3.936 27.8 4.08 28.416 4.368 28.816C4.672 29.2 5.12 29.392 5.712 29.392C6.16 29.392 6.664 29.28 7.224 29.056C7.784 28.832 8.48 28.384 9.312 27.712V19.12H11.28V31H9.432ZM20.4863 31L17.5343 26.368L14.7023 31H12.6143L16.5503 24.856L12.9023 19.12H15.0863L17.7023 23.272L20.2703 19.12H22.3343L18.7103 24.808L22.6463 31H20.4863Z" fill="#848484"/>
<path d="M10.728 16.304C10.008 16.656 9.288 16.896 8.568 17.024C7.848 17.168 7.184 17.24 6.576 17.24C4.864 17.24 3.584 16.752 2.736 15.776C1.904 14.8 1.488 13.464 1.488 11.768V10.328C1.488 8.68 1.904 7.36 2.736 6.368C3.584 5.376 4.776 4.88 6.312 4.88C7.128 4.88 7.872 5.048 8.544 5.384C9.232 5.704 9.776 6.2 10.176 6.872C10.592 7.528 10.8 8.376 10.8 9.416C10.8 10.088 10.704 10.856 10.512 11.72H3.432V11.768C3.432 12.984 3.68 13.904 4.176 14.528C4.688 15.152 5.504 15.464 6.624 15.464C7.136 15.464 7.696 15.4 8.304 15.272C8.928 15.144 9.536 14.944 10.128 14.672L10.728 16.304ZM6.312 6.608C5.384 6.608 4.68 6.912 4.2 7.52C3.736 8.112 3.48 8.952 3.432 10.04H8.808C8.856 9.752 8.88 9.48 8.88 9.224C8.88 8.328 8.624 7.672 8.112 7.256C7.616 6.824 7.016 6.608 6.312 6.608ZM21.6697 15.296V17H13.4137V15.464L19.1017 6.848H13.6537V5.12H21.4297V6.68L15.7177 15.296H21.6697Z" fill="#4B7CC6"/>
</svg>
